<?xml version="1.0" encoding="UTF-8" standalone="no"?>
<!DOCTYPE svg PUBLIC "-//W3C//DTD SVG 1.1//EN" "http://www.w3.org/Graphics/SVG/1.1/DTD/svg11.dtd">
<svg width="100%" height="100%" viewBox="0 0 3544 3544" version="1.1" xmlns="http://www.w3.org/2000/svg" xmlns:xlink="http://www.w3.org/1999/xlink" xml:space="preserve" xmlns:serif="http://www.serif.com/" style="fill-rule:evenodd;clip-rule:evenodd;stroke-linejoin:round;stroke-miterlimit:2;">
    <g transform="matrix(11.635,0,0,11.635,1771.653543,1593.653543)">
        <g transform="matrix(1,0,0,1,-100,-100)">
            <g transform="matrix(0.208333,0,0,0.208333,0,200)">
                <path d="M160,-120L160,-340C160,-356.5 165.877,-370.627 177.63,-382.38C189.377,-394.127 203.5,-400 220,-400L740,-400C756.5,-400 770.627,-394.127 782.38,-382.38C794.127,-370.627 800,-356.5 800,-340L800,-120L160,-120ZM360,-440C304.667,-440 257.5,-459.5 218.5,-498.5C179.5,-537.5 160,-584.667 160,-640C160,-695.333 179.5,-742.5 218.5,-781.5C257.5,-820.5 304.667,-840 360,-840L600,-840C655.333,-840 702.5,-820.5 741.5,-781.5C780.5,-742.5 800,-695.333 800,-640C800,-584.667 780.5,-537.5 741.5,-498.5C702.5,-459.5 655.333,-440 600,-440L360,-440ZM220,-180L740,-180L740,-340L220,-340L220,-180ZM360,-500L600,-500C638.887,-500 671.943,-513.587 699.17,-540.76C726.39,-567.94 740,-600.94 740,-639.76C740,-678.587 726.39,-711.667 699.17,-739C671.943,-766.333 638.887,-780 600,-780L360,-780C321.113,-780 288.057,-766.413 260.83,-739.24C233.61,-712.06 220,-679.06 220,-640.24C220,-601.413 233.61,-568.333 260.83,-541C288.057,-513.667 321.113,-500 360,-500ZM360.18,-610C368.727,-610 375.833,-612.893 381.5,-618.68C387.167,-624.46 390,-631.627 390,-640.18C390,-648.727 387.107,-655.833 381.32,-661.5C375.54,-667.167 368.373,-670 359.82,-670C351.273,-670 344.167,-667.107 338.5,-661.32C332.833,-655.54 330,-648.373 330,-639.82C330,-631.273 332.893,-624.167 338.68,-618.5C344.46,-612.833 351.627,-610 360.18,-610ZM600.18,-610C608.727,-610 615.833,-612.893 621.5,-618.68C627.167,-624.46 630,-631.627 630,-640.18C630,-648.727 627.107,-655.833 621.32,-661.5C615.54,-667.167 608.373,-670 599.82,-670C591.273,-670 584.167,-667.107 578.5,-661.32C572.833,-655.54 570,-648.373 570,-639.82C570,-631.273 572.893,-624.167 578.68,-618.5C584.46,-612.833 591.627,-610 600.18,-610Z" style="fill:rgb(155,155,155);fill-rule:nonzero;"/>
            </g>
            <g transform="matrix(1.444101,0,0,1.437318,80.009688,122.89071)">
                <path d="M18.102,12.129L18.102,12.128C18.102,10.564 19.37,9.297 20.933,9.297C22.496,9.297 23.764,10.565 23.764,12.128C23.764,13.692 22.497,14.959 20.933,14.959L20.931,14.959C19.368,14.959 18.101,13.692 18.101,12.129L18.101,12.128L18.102,12.129ZM24.691,12.135C24.691,10.054 23.004,8.367 20.923,8.367C18.842,8.367 17.155,10.054 17.155,12.135C17.155,14.216 18.842,15.903 20.923,15.903C23.003,15.9 24.688,14.215 24.691,12.136L24.691,12.135ZM10.427,23.76L8.586,22.998C9.11,24.076 10.197,24.806 11.454,24.806C12.771,24.806 13.902,24.005 14.384,22.863L14.392,22.842C14.547,22.48 14.638,22.058 14.638,21.616C14.638,19.859 13.214,18.435 11.457,18.435C11.052,18.435 10.665,18.511 10.309,18.648L10.331,18.641L12.234,19.428C13.086,19.792 13.673,20.624 13.673,21.592C13.673,22.888 12.622,23.939 11.326,23.939C11.002,23.939 10.694,23.873 10.413,23.755L10.428,23.761L10.427,23.76ZM15.974,1.004C8.117,1.005 1.673,7.05 1.036,14.742L1.032,14.796L9.07,18.118C9.738,17.656 10.565,17.381 11.457,17.381L11.459,17.381C11.538,17.381 11.615,17.386 11.694,17.389L15.269,12.213L15.269,12.139C15.272,9.019 17.802,6.491 20.922,6.491C24.044,6.491 26.575,9.022 26.575,12.144C26.575,15.266 24.044,17.797 20.922,17.797L20.791,17.797L15.697,21.435C15.697,21.5 15.702,21.566 15.702,21.634L15.702,21.637C15.702,23.979 13.803,25.878 11.461,25.878C9.414,25.878 7.705,24.427 7.308,22.498L7.303,22.471L1.548,20.088C3.389,26.433 9.149,30.993 15.973,30.993C24.254,30.993 30.967,24.28 30.967,15.999C30.967,7.718 24.254,1.005 15.973,1.005L15.972,1.005L15.974,1.004Z" style="fill:rgb(155,155,155);fill-rule:nonzero;"/>
            </g>
        </g>
    </g>
    <g transform="matrix(17.74,0,0,17.74,1771.653543,1771.653543)">
        <g transform="matrix(1,0,0,1,-100,-100)">
            <g transform="matrix(0.208333,0,0,0.208333,0,200)">
                <path d="M743,-295L698,-341C711.333,-364.333 721.667,-394.167 729,-430.5C736.333,-466.833 740,-498 740,-524L740,-720L480,-816L292,-747L246,-793L480,-881L800,-762L800,-524C800,-484.373 795,-445.133 785,-406.28C775,-367.427 761,-330.333 743,-295ZM810,-57L670,-195C640.667,-165.667 610.667,-141.667 580,-123C549.333,-104.333 516,-90.333 480,-81C384.667,-107 307.5,-161.81 248.5,-245.43C189.5,-329.05 160,-421.907 160,-524L160,-707L55,-812L98,-855L853,-100L810,-57ZM480,-143C508.047,-152.347 534.893,-165.517 560.54,-182.51C586.18,-199.503 608.667,-218 628,-238L220,-647L220,-524C220,-437.267 244.333,-358.417 293,-287.45C341.667,-216.483 404,-168.333 480,-143Z" style="fill:rgb(163,0,0);fill-rule:nonzero;"/>
            </g>
        </g>
    </g>
</svg>
